HIERARCHY
ROOT Hips
{
	OFFSET 0.000000 0.000000 0.000000
	CHANNELS 6 Xposition Yposition Zposition Xrotation Yrotation Zrotation
	JOINT LeftUpLeg_virtual
	{
		OFFSET 0.000000 0.000000 0.000000
		CHANNELS 3 Xrotation Yrotation Zrotation
		JOINT LeftUpLeg
		{
			OFFSET 11.394100 -6.187798 -0.413800
			CHANNELS 3 Xrotation Yrotation Zrotation
			JOINT LeftLeg
			{
				OFFSET 0.430247 -32.302673 3.732800
				CHANNELS 3 Xrotation Yrotation Zrotation
				JOINT LeftFoot
				{
					OFFSET -0.430247 -48.264931 -6.423300
					CHANNELS 3 Xrotation Yrotation Zrotation
					JOINT LeftToeBase
					{
						OFFSET 4.230900 -16.068199 23.438400
						CHANNELS 3 Xrotation Yrotation Zrotation
						JOINT LeftToe_End
						{
							OFFSET 4.510700 0.695400 19.974600
							CHANNELS 3 Xrotation Yrotation Zrotation
							End Site
							{
								OFFSET 0 0 0
							}
						}
					}
				}
			}
		}
	}
	JOINT RightUpLeg_virtual
	{
		OFFSET 0.000000 0.000000 0.000000
		CHANNELS 3 Xrotation Yrotation Zrotation
		JOINT RightUpLeg
		{
			OFFSET -11.333700 -6.187798 -0.413800
			CHANNELS 3 Xrotation Yrotation Zrotation
			JOINT RightLeg
			{
				OFFSET -0.430392 -32.302628 3.733000
				CHANNELS 3 Xrotation Yrotation Zrotation
				JOINT RightFoot
				{
					OFFSET 0.430392 -48.264973 -6.423500
					CHANNELS 3 Xrotation Yrotation Zrotation
					JOINT RightToeBase
					{
						OFFSET -4.230900 -16.068199 23.438400
						CHANNELS 3 Xrotation Yrotation Zrotation
						JOINT RightToe_End
						{
							OFFSET -4.510700 0.695400 19.974600
							CHANNELS 3 Xrotation Yrotation Zrotation
							End Site
							{
								OFFSET 0 0 0
							}
						}
					}
				}
			}
		}
	}
	JOINT Spine_virtual
	{
		OFFSET 0.000000 0.000000 0.000000
		CHANNELS 3 Xrotation Yrotation Zrotation
		JOINT Spine
		{
			OFFSET -0.002400 12.777504 0.315300
			CHANNELS 3 Xrotation Yrotation Zrotation
			JOINT Spine1
			{
				OFFSET -0.002067 5.816869 0.032633
				CHANNELS 3 Xrotation Yrotation Zrotation
				JOINT Spine1_split
				{
					OFFSET -0.002067 5.816869 0.032633
					CHANNELS 3 Xrotation Yrotation Zrotation
					JOINT Spine2
					{
						OFFSET -0.002067 5.816869 0.032633
						CHANNELS 3 Xrotation Yrotation Zrotation
						JOINT Neck_virtual
						{
							OFFSET 0.000000 0.000000 0.000000
							CHANNELS 3 Xrotation Yrotation Zrotation
							JOINT Neck
							{
								OFFSET -0.003700 21.199493 -0.826900
								CHANNELS 3 Xrotation Yrotation Zrotation
								JOINT Head
								{
									OFFSET 0.000000 20.442200 4.834800
									CHANNELS 3 Xrotation Yrotation Zrotation
									JOINT HeadTop_End
									{
										OFFSET 0.000000 34.668396 4.968400
										CHANNELS 3 Xrotation Yrotation Zrotation
										End Site
										{
											OFFSET 0 0 0
										}
									}
								}
							}
						}
						JOINT LeftShoulder_virtual
						{
							OFFSET 0.000000 0.000000 0.000000
							CHANNELS 3 Xrotation Yrotation Zrotation
							JOINT LeftShoulder
							{
								OFFSET 3.288150 8.794197 -1.372250
								CHANNELS 3 Xrotation Yrotation Zrotation
								JOINT LeftShoulder_split
								{
									OFFSET 3.288150 8.794197 -1.372250
									CHANNELS 3 Xrotation Yrotation Zrotation
									JOINT LeftArm
									{
										OFFSET 11.953299 -2.279007 -0.146200
										CHANNELS 3 Xrotation Yrotation Zrotation
										JOINT LeftForeArm
										{
											OFFSET 18.448900 0.000000 0.000000
											CHANNELS 3 Xrotation Yrotation Zrotation
											JOINT LeftHand
											{
												OFFSET 29.527798 0.000000 0.000000
												CHANNELS 3 Xrotation Yrotation Zrotation
												End Site
												{
													OFFSET 0 0 0
												}
											}
										}
									}
								}
							}
						}
						JOINT RightShoulder_virtual
						{
							OFFSET 0.000000 0.000000 0.000000
							CHANNELS 3 Xrotation Yrotation Zrotation
							JOINT RightShoulder
							{
								OFFSET -3.249400 8.794197 -1.372250
								CHANNELS 3 Xrotation Yrotation Zrotation
								JOINT RightShoulder_split
								{
									OFFSET -3.249400 8.794197 -1.372250
									CHANNELS 3 Xrotation Yrotation Zrotation
									JOINT RightArm
									{
										OFFSET -11.953299 -2.279007 -0.146200
										CHANNELS 3 Xrotation Yrotation Zrotation
										JOINT RightForeArm
										{
											OFFSET -18.448900 0.000000 0.000000
											CHANNELS 3 Xrotation Yrotation Zrotation
											JOINT RightHand
											{
												OFFSET -29.527802 0.000000 0.000000
												CHANNELS 3 Xrotation Yrotation Zrotation
												End Site
												{
													OFFSET 0 0 0
												}
											}
										}
									}
								}
							}
						}
					}
				}
			}
		}
	}
}
MOTION
Frames: 4
Frame Time: 0.03333333
1.066312 83.469467 -1.528854 0.000000 0.000000 0.000000 -6.265942 -51.756158 -0.300584 -28.088087 10.795966 17.198944 51.514704 1.919094 6.207492 -15.380041 -9.905340 -11.709191 -6.475164 0.627016 -0.484946 0.000000 0.000000 0.000000 -6.753597 -50.342053 0.098597 -28.410479 -8.909471 -29.723112 56.052490 -0.672068 -3.710996 -19.259636 -10.410070 21.868049 -0.363015 0.126351 -1.080445 0.000000 0.000000 0.000000 -6.812021 -50.475549 -1.590799 11.007047 7.106446 -2.820460 0.924080 1.538942 -0.621840 0.387600 -0.470085 1.209225 0.000000 0.000000 0.000000 0.626287 2.135516 -0.491926 3.646596 14.396089 6.191753 6.952676 19.015267 -2.218386 0.000000 0.000000 0.000000 2.687645 1.328854 -0.090770 1.251423 3.851250 -6.864212 -4.587106 -4.417281 -3.856041 -50.658475 6.285917 -46.568086 179.148718 -72.467330 -178.545748 0.000000 0.000000 0.000000 2.635605 1.735724 -0.408808 3.752110 11.256136 -5.501535 0.591733 -4.491498 -1.936281 -49.588072 20.774106 86.911562 177.121763 72.552892 -176.975228 0.000000 0.000000 0.000000 
1.441167 82.330826 0.002262 0.000000 0.000000 0.000000 -7.352312 -53.113863 -0.980697 -29.640712 10.045641 17.292193 54.264002 2.878178 5.558316 -15.191375 -8.716507 -12.303413 -8.277715 0.641720 -0.844018 0.000000 0.000000 0.000000 -7.799647 -51.329900 -0.478812 -28.859571 -8.494924 -30.103885 57.911610 -0.136754 -3.758261 -21.527578 -10.825572 21.134514 1.183125 -0.087984 -0.663199 0.000000 0.000000 0.000000 -7.246191 -51.053181 -1.806934 11.665768 7.274171 -2.789247 1.094249 1.417888 -0.591781 0.676873 -0.348739 1.301283 0.000000 0.000000 0.000000 0.669773 2.020459 -0.534806 3.739226 14.291325 6.109619 7.050946 19.034108 -2.096016 0.000000 0.000000 0.000000 2.627369 1.283488 -0.033567 1.167341 3.582453 -7.281351 -2.384218 -6.104973 -3.232682 -52.805951 6.500095 -47.311771 175.849613 -72.550037 177.773022 0.000000 0.000000 0.000000 2.657037 1.657673 -0.437775 3.859729 11.950843 -5.472839 0.958276 -4.719949 -1.005389 -50.864576 22.958200 87.100389 177.634396 73.132680 -177.272683 0.000000 0.000000 0.000000 
1.705125 79.927185 2.029633 0.000000 0.000000 0.000000 -8.255038 -54.485952 -1.727556 -32.842247 9.134737 18.419357 60.704706 2.482283 4.183188 -16.299756 -8.874610 -13.256144 -11.791587 -0.198769 2.216187 0.000000 0.000000 0.000000 -8.627112 -52.113971 -1.082920 -29.812290 -7.173814 -30.664810 60.600327 1.112048 -4.326203 -22.837228 -11.442527 21.861412 0.537403 -0.406397 0.011849 0.000000 0.000000 0.000000 -7.900307 -52.106437 -2.255527 12.791403 7.747396 -2.379726 0.977904 1.284626 -0.732308 0.701681 -0.293089 1.052715 0.000000 0.000000 0.000000 0.306162 1.825822 -0.712421 3.286218 14.367892 6.058065 7.662544 19.012557 -1.759748 0.000000 0.000000 0.000000 2.324907 1.195327 -0.104490 1.021101 3.364665 -8.034706 -0.792025 -6.573007 -2.231281 -53.414094 6.329294 -47.901626 171.034849 -73.084308 172.596585 0.000000 0.000000 0.000000 2.242070 1.492279 -0.579786 3.896904 12.728106 -5.262886 0.704856 -4.187151 -0.524183 -51.890668 23.998891 86.377031 178.378860 74.150952 -178.309574 0.000000 0.000000 0.000000 
1.926878 76.748535 4.354881 0.000000 0.000000 0.000000 -8.956587 -55.784928 -2.454693 -37.937015 7.417047 20.603290 70.059211 -0.086154 3.055680 -17.216510 -10.490252 -15.480625 -14.751902 -1.689417 6.829126 0.000000 0.000000 0.000000 -8.999432 -52.793114 -1.500436 -31.384388 -5.202296 -31.399992 63.459718 2.952285 -5.366704 -22.878707 -11.926661 23.963179 -1.839635 -0.817840 0.669329 0.000000 0.000000 0.000000 -8.719738 -53.664065 -2.926896 14.242176 8.423161 -1.662038 0.663259 1.240824 -1.028166 0.701427 0.232879 0.717863 0.000000 0.000000 0.000000 -0.388385 1.692090 -0.970419 2.212820 14.590729 6.042349 8.480361 19.229904 -1.438743 0.000000 0.000000 0.000000 1.777895 1.135116 -0.280199 0.872511 3.461871 -8.817861 0.333937 -5.712246 -0.981075 -51.825956 7.037145 -47.551989 167.230502 -72.964206 168.556624 0.000000 0.000000 0.000000 1.431265 1.333275 -0.839788 3.818686 13.437197 -5.042500 0.387094 -3.023157 -0.381908 -52.619480 23.663081 85.026470 -179.936908 75.215027 179.255883 0.000000 0.000000 0.000000 
